<?xml version="1.0" encoding="utf-8"?>
<svg xmlns="http://www.w3.org/2000/svg" style="margin: auto; background: none; display: block; shape-rendering: auto;" width="284" height="284" preserveAspectRatio="xMidYMid">
<style type="text/css">
  text {
    text-anchor: middle; font-size: 180px; opacity: 0;
  }
</style>
<g style="transform-origin: 142px 142px; transform: scale(2.25);">
<g transform="translate(142,142)">
  <g transform="translate(0,0)"><g class="path" style="transform: scale(0.91); transform-origin: 4.24px 4.512px; animation: 1s linear 0s infinite normal forwards running breath-2d37680e-5708-4e15-adff-d3de3dd10b70;"><path d="M83.44 3.28L83.44 3.28L83.44 3.28Q85.52 3.28 87.44 1.04L87.44 1.04L88.64 2L88.64 2Q88.40 2.32 88 2.80L88 2.80L88 2.80Q87.60 3.28 86.04 4.08L86.04 4.08L86.04 4.08Q84.48 4.88 82.64 4.88L82.64 4.88L82.64 4.88Q73.68 4.88 73.68-2.88L73.68-2.88L73.68-2.88Q73.68-5.28 74.24-10L74.24-10L74.24-10Q70.40-8.80 67.36-8.80L67.36-8.80L67.36-8.80Q62-8.80 56.64-12.08L56.64-12.08L56.64-12.08Q53.52-6.72 50.80-2.92L50.80-2.92L50.80-2.92Q48.08 0.88 44.48 4.48L44.48 4.48L44.48 4.48Q37.04 11.76 26.52 11.76L26.52 11.76L26.52 11.76Q16 11.76 9.76 5.04L9.76 5.04L9.76 5.04Q4.24-1.12 4.24-9.96L4.24-9.96L4.24-9.96Q4.24-18.80 9.92-25.68L9.92-25.68L9.92-25.68Q15.60-32.56 24.64-32.56L24.64-32.56L24.64-32.56Q33.68-32.56 38.40-27.20L38.40-27.20L38.40-27.20Q39.52-25.76 40-25.04L40-25.04L40-25.04Q44.32-23.20 49.84-18.96L49.84-18.96L49.84-18.96Q54-15.60 56-14.32L56-14.32L56-14.32Q57.12-16.40 59.08-19.92L59.08-19.92L59.08-19.92Q61.04-23.44 62.08-25.28L62.08-25.28L62.08-25.28Q63.12-27.12 65.20-30.48L65.20-30.48L65.20-30.48Q67.28-33.84 68.60-35.56L68.60-35.56L68.60-35.56Q69.92-37.28 72.12-39.88L72.12-39.88L72.12-39.88Q74.32-42.48 76.16-43.76L76.16-43.76L76.16-43.76Q81.68-47.68 85.44-48.32L85.44-48.32L85.44-48.32Q87.52-48.64 88.96-48.64L88.96-48.64L88.96-48.64Q90.40-48.64 92.16-48.60L92.16-48.60L92.16-48.60Q93.92-48.56 97.12-47.68L97.12-47.68L96.72-46.16L96.72-46.16Q94.80-46.72 92.64-46.96L92.64-46.96L92.64-46.96Q84.64-15.52 83.44 3.28zM42.56-15.76L42.56-15.76L42.56-15.76Q42.56-9.84 39.16-5.28L39.16-5.28L39.16-5.28Q35.76-0.72 30-0.72L30-0.72L30-0.72Q26.24-0.72 23.88-2.96L23.88-2.96L23.88-2.96Q21.52-5.20 21.52-7.60L21.52-7.60L21.52-7.60Q21.52-10 22.24-11.56L22.24-11.56L22.24-11.56Q22.96-13.12 23.88-13.92L23.88-13.92L23.88-13.92Q24.80-14.72 25.92-15.20L25.92-15.20L25.92-15.20Q27.44-16 28.32-16L28.32-16L28.48-14.40L28.48-14.40Q26.48-14.40 24.80-12.48L24.80-12.48L24.80-12.48Q23.12-10.56 23.12-8.16L23.12-8.16L23.12-8.16Q23.12-5.76 25-4.04L25-4.04L25-4.04Q26.88-2.32 30-2.32L30-2.32L30-2.32Q35.12-2.32 38.08-6.32L38.08-6.32L38.08-6.32Q41.04-10.32 41.04-15.20L41.04-15.20L41.04-15.20Q41.04-20.08 39.04-23.68L39.04-23.68L39.04-23.68Q34.64-25.36 30.32-25.36L30.32-25.36L30.32-25.36Q22-25.36 18.56-17.60L18.56-17.60L17.04-18.08L17.04-18.08Q17.92-20.08 19.84-22.40L19.84-22.40L19.84-22.40Q23.60-26.96 30.32-26.96L30.32-26.96L30.32-26.96Q33.92-26.96 37.44-25.92L37.44-25.92L37.28-26.16L37.28-26.16Q32.88-30.96 24.60-30.96L24.60-30.96L24.60-30.96Q16.32-30.96 11.08-24.56L11.08-24.56L11.08-24.56Q5.84-18.16 5.84-9.88L5.84-9.88L5.84-9.88Q5.84-1.60 10.96 3.92L10.96 3.92L10.96 3.92Q16.72 10.16 27.04 10.16L27.04 10.16L27.04 10.16Q36.48 10.16 43.52 3.04L43.52 3.04L43.52 3.04Q47.04-0.40 49.64-4.08L49.64-4.08L49.64-4.08Q52.24-7.76 55.28-12.96L55.28-12.96L55.28-12.96Q52.56-14.72 48.68-17.80L48.68-17.80L48.68-17.80Q44.80-20.88 41.20-22.72L41.20-22.72L41.20-22.72Q42.56-19.36 42.56-15.76zM60.48-18.96L57.44-13.44L57.44-13.44Q62.56-10.40 66.84-10.40L66.84-10.40L66.84-10.40Q71.12-10.40 74.48-11.76L74.48-11.76L74.48-11.76Q76.40-25.28 81.68-45.36L81.68-45.36L81.68-45.36Q75.28-42.32 69.92-34.56L69.92-34.56L69.92-34.56Q66-28.96 60.48-18.96L60.48-18.96" fill="#51cacc" stroke="none" stroke-width="none" transform="translate(-46.44000244140625,22.952003479003906)" style="fill: rgb(81, 202, 204);"></path></g></g>
</g>
</g>
<style id="breath-2d37680e-5708-4e15-adff-d3de3dd10b70" data-anikit="">@keyframes breath-2d37680e-5708-4e15-adff-d3de3dd10b70
{
  0% {
    animation-timing-function: cubic-bezier(0.9647,0.2413,-0.0705,0.7911);
    transform: scale(0.9099999999999999);
  }
  51% {
    animation-timing-function: cubic-bezier(0.9226,0.2631,-0.0308,0.7628);
    transform: scale(1.02994);
  }
  100% {
    transform: scale(0.9099999999999999);
  }
}</style></svg>