<?xml version="1.0" encoding="utf-8"?>
<svg xmlns="http://www.w3.org/2000/svg" style="margin: auto; background: none; display: block; shape-rendering: auto;" width="280" height="70" preserveAspectRatio="xMidYMid">
<style type="text/css">
  text {
    text-anchor: middle; font-size: 80px; opacity: 0;
  }
</style>
<g style="transform-origin:140px 35px;transform:scale(1)">
<g transform="translate(140,35)">
  <g transform="translate(0,0)"><g class="path" style="transform: scale(0.91); transform-origin: -76.96px -0.605331px; animation: 1s linear -0.586667s infinite normal forwards running breath-5ee2bdb7-97ce-41e6-a451-a2263756f90c;"><path d="M83.44 3.28L83.44 3.28L83.44 3.28Q85.52 3.28 87.44 1.04L87.44 1.04L88.64 2L88.64 2Q88.40 2.32 88 2.80L88 2.80L88 2.80Q87.60 3.28 86.04 4.08L86.04 4.08L86.04 4.08Q84.48 4.88 82.64 4.88L82.64 4.88L82.64 4.88Q73.68 4.88 73.68-2.88L73.68-2.88L73.68-2.88Q73.68-5.28 74.24-10L74.24-10L74.24-10Q70.40-8.80 67.36-8.80L67.36-8.80L67.36-8.80Q62-8.80 56.64-12.08L56.64-12.08L56.64-12.08Q53.52-6.72 50.80-2.92L50.80-2.92L50.80-2.92Q48.08 0.88 44.48 4.48L44.48 4.48L44.48 4.48Q37.04 11.76 26.52 11.76L26.52 11.76L26.52 11.76Q16 11.76 9.76 5.04L9.76 5.04L9.76 5.04Q4.24-1.12 4.24-9.96L4.24-9.96L4.24-9.96Q4.24-18.80 9.92-25.68L9.92-25.68L9.92-25.68Q15.60-32.56 24.64-32.56L24.64-32.56L24.64-32.56Q33.68-32.56 38.40-27.20L38.40-27.20L38.40-27.20Q39.52-25.76 40-25.04L40-25.04L40-25.04Q44.32-23.20 49.84-18.96L49.84-18.96L49.84-18.96Q54-15.60 56-14.32L56-14.32L56-14.32Q57.12-16.40 59.08-19.92L59.08-19.92L59.08-19.92Q61.04-23.44 62.08-25.28L62.08-25.28L62.08-25.28Q63.12-27.12 65.20-30.48L65.20-30.48L65.20-30.48Q67.28-33.84 68.60-35.56L68.60-35.56L68.60-35.56Q69.92-37.28 72.12-39.88L72.12-39.88L72.12-39.88Q74.32-42.48 76.16-43.76L76.16-43.76L76.16-43.76Q81.68-47.68 85.44-48.32L85.44-48.32L85.44-48.32Q87.52-48.64 88.96-48.64L88.96-48.64L88.96-48.64Q90.40-48.64 92.16-48.60L92.16-48.60L92.16-48.60Q93.92-48.56 97.12-47.68L97.12-47.68L96.72-46.16L96.72-46.16Q94.80-46.72 92.64-46.96L92.64-46.96L92.64-46.96Q84.64-15.52 83.44 3.28zM42.56-15.76L42.56-15.76L42.56-15.76Q42.56-9.84 39.16-5.28L39.16-5.28L39.16-5.28Q35.76-0.72 30-0.72L30-0.72L30-0.72Q26.24-0.72 23.88-2.96L23.88-2.96L23.88-2.96Q21.52-5.20 21.52-7.60L21.52-7.60L21.52-7.60Q21.52-10 22.24-11.56L22.24-11.56L22.24-11.56Q22.96-13.12 23.88-13.92L23.88-13.92L23.88-13.92Q24.80-14.72 25.92-15.20L25.92-15.20L25.92-15.20Q27.44-16 28.32-16L28.32-16L28.48-14.40L28.48-14.40Q26.48-14.40 24.80-12.48L24.80-12.48L24.80-12.48Q23.12-10.56 23.12-8.16L23.12-8.16L23.12-8.16Q23.12-5.76 25-4.04L25-4.04L25-4.04Q26.88-2.32 30-2.32L30-2.32L30-2.32Q35.12-2.32 38.08-6.32L38.08-6.32L38.08-6.32Q41.04-10.32 41.04-15.20L41.04-15.20L41.04-15.20Q41.04-20.08 39.04-23.68L39.04-23.68L39.04-23.68Q34.64-25.36 30.32-25.36L30.32-25.36L30.32-25.36Q22-25.36 18.56-17.60L18.56-17.60L17.04-18.08L17.04-18.08Q17.92-20.08 19.84-22.40L19.84-22.40L19.84-22.40Q23.60-26.96 30.32-26.96L30.32-26.96L30.32-26.96Q33.92-26.96 37.44-25.92L37.44-25.92L37.28-26.16L37.28-26.16Q32.88-30.96 24.60-30.96L24.60-30.96L24.60-30.96Q16.32-30.96 11.08-24.56L11.08-24.56L11.08-24.56Q5.84-18.16 5.84-9.88L5.84-9.88L5.84-9.88Q5.84-1.60 10.96 3.92L10.96 3.92L10.96 3.92Q16.72 10.16 27.04 10.16L27.04 10.16L27.04 10.16Q36.48 10.16 43.52 3.04L43.52 3.04L43.52 3.04Q47.04-0.40 49.64-4.08L49.64-4.08L49.64-4.08Q52.24-7.76 55.28-12.96L55.28-12.96L55.28-12.96Q52.56-14.72 48.68-17.80L48.68-17.80L48.68-17.80Q44.80-20.88 41.20-22.72L41.20-22.72L41.20-22.72Q42.56-19.36 42.56-15.76zM60.48-18.96L57.44-13.44L57.44-13.44Q62.56-10.40 66.84-10.40L66.84-10.40L66.84-10.40Q71.12-10.40 74.48-11.76L74.48-11.76L74.48-11.76Q76.40-25.28 81.68-45.36L81.68-45.36L81.68-45.36Q75.28-42.32 69.92-34.56L69.92-34.56L69.92-34.56Q66-28.96 60.48-18.96L60.48-18.96" fill="#51cacc" stroke="none" stroke-width="none" transform="translate(-127.6400146484375,17.83466640896267)" style="fill: rgb(81, 202, 204);"></path></g><g class="path" style="transform: scale(0.91); transform-origin: -15.96px 2.63467px; animation: 1s linear -0.513333s infinite normal forwards running breath-5ee2bdb7-97ce-41e6-a451-a2263756f90c;"><path d="M108.56 0.72L108.56 0.72Q102.40 0.72 99.20-2.36L99.20-2.36L99.20-2.36Q96-5.44 96-10.12L96-10.12L96-10.12Q96-14.80 96.84-18.12L96.84-18.12L96.84-18.12Q97.68-21.44 99.60-24.52L99.60-24.52L99.60-24.52Q101.52-27.60 105.40-29.36L105.40-29.36L105.40-29.36Q109.28-31.12 115.08-31.12L115.08-31.12L115.08-31.12Q120.88-31.12 124.12-28.04L124.12-28.04L124.12-28.04Q127.36-24.96 127.36-19.60L127.36-19.60L127.36-19.60Q127.36-10.48 122.52-4.88L122.52-4.88L122.52-4.88Q117.68 0.72 108.56 0.72L108.56 0.72zM105.04-7.52L105.04-7.52L105.04-7.52Q105.04-1.12 108.76-1.12L108.76-1.12L108.76-1.12Q112.48-1.12 115.40-7.56L115.40-7.56L115.40-7.56Q118.32-14 118.32-22.88L118.32-22.88L118.32-22.88Q118.32-29.60 114.68-29.60L114.68-29.60L114.68-29.60Q111.04-29.60 108.04-23.48L108.04-23.48L108.04-23.48Q105.04-17.36 105.04-7.52" fill="#51cacc" stroke="none" stroke-width="none" transform="translate(-127.6400146484375,17.83466640896267)" style="fill: rgb(157, 248, 113);"></path></g><g class="path" style="transform: scale(0.91); transform-origin: 15.2px -7.72533px; animation: 1s linear -0.44s infinite normal forwards running breath-5ee2bdb7-97ce-41e6-a451-a2263756f90c;"><path d="M145.92-2.88L145.92-2.88L145.92-2.88Q144.88-1.52 143.08-0.40L143.08-0.40L143.08-0.40Q141.28 0.72 138.40 0.72L138.40 0.72L138.40 0.72Q135.52 0.72 133.52-1.12L133.52-1.12L133.52-1.12Q131.52-2.96 131.52-6.32L131.52-6.32L131.52-6.32Q131.52-6.96 131.68-8.40L131.68-8.40L136.88-37.20L136.88-37.20Q138.32-45.12 140.84-48.48L140.84-48.48L140.84-48.48Q143.36-51.84 147.52-51.84L147.52-51.84L147.52-51.84Q150.40-51.84 152.28-49.68L152.28-49.68L152.28-49.68Q154.16-47.52 154.16-43.12L154.16-43.12L154.16-43.12Q154.16-38.72 150.76-30.56L150.76-30.56L150.76-30.56Q147.36-22.40 147.36-18.64L147.36-18.64L145.92-18.64L145.92-18.64Q145.92-22.88 149.28-30.76L149.28-30.76L149.28-30.76Q152.64-38.64 152.64-43.36L152.64-43.36L152.64-43.36Q152.64-46.24 151.32-48.32L151.32-48.32L151.32-48.32Q150-50.40 148.08-50.40L148.08-50.40L148.08-50.40Q148-48.32 145.32-31.72L145.32-31.72L145.32-31.72Q142.64-15.12 140-0.88L140-0.88L140-0.88Q142.24-0.88 144.16-3.20L144.16-3.20L144.16-3.20Q146.08-5.52 146.88-7.84L146.88-7.84L147.76-10.24L149.20-9.60L149.20-9.60Q148.96-8.48 147.96-6.36L147.96-6.36L147.96-6.36Q146.96-4.24 145.92-2.88" fill="#51cacc" stroke="none" stroke-width="none" transform="translate(-127.6400146484375,17.83466640896267)" style="fill: rgb(224, 255, 119);"></path></g><g class="path" style="transform: scale(0.91); transform-origin: 34px 2.63467px; animation: 1s linear -0.366667s infinite normal forwards running breath-5ee2bdb7-97ce-41e6-a451-a2263756f90c;"><path d="M168.32-2.16L168.32-2.16Q165.92 0.72 162.32 0.72L162.32 0.72L162.32 0.72Q158.72 0.72 156.68-1.12L156.68-1.12L156.68-1.12Q154.64-2.96 154.64-5.92L154.64-5.92L154.64-5.92Q154.64-6.96 155.92-14.64L155.92-14.64L158.56-28.96L155.20-28.96L155.36-30.40L158.80-30.40L158.80-30.40Q164.72-30.40 167.52-30.88L167.52-30.88L168.64-31.12L163.12-0.88L163.12-0.88Q165.52-1.12 167.12-3.12L167.12-3.12L168.32-2.16" fill="#51cacc" stroke="none" stroke-width="none" transform="translate(-127.6400146484375,17.83466640896267)" style="fill: rgb(222, 157, 214);"></path></g><g class="path" style="transform: scale(0.91); transform-origin: 37.76px -25.0853px; animation: 1s linear -0.293333s infinite normal forwards running breath-5ee2bdb7-97ce-41e6-a451-a2263756f90c;"><path d="M161.28-38.80L161.28-38.80L161.28-38.80Q159.60-40.48 159.60-42.88L159.60-42.88L159.60-42.88Q159.60-45.28 161.28-47L161.28-47L161.28-47Q162.96-48.72 165.36-48.72L165.36-48.72L165.36-48.72Q167.76-48.72 169.48-47L169.48-47L169.48-47Q171.20-45.28 171.20-42.88L171.20-42.88L171.20-42.88Q171.20-40.48 169.48-38.80L169.48-38.80L169.48-38.80Q167.76-37.12 165.36-37.12L165.36-37.12L165.36-37.12Q162.96-37.12 161.28-38.80" fill="#51cacc" stroke="none" stroke-width="none" transform="translate(-127.6400146484375,17.83466640896267)" style="fill: rgb(255, 112, 142);"></path></g><g class="path" style="transform: scale(0.91); transform-origin: 61.4px 9.63467px; animation: 1s linear -0.22s infinite normal forwards running breath-5ee2bdb7-97ce-41e6-a451-a2263756f90c;"><path d="M199.20 8.72L199.20 8.72L199.20 8.72Q202.08 8.72 204.16 6.48L204.16 6.48L205.28 7.44L205.28 7.44Q203.36 10.16 199.20 10.16L199.20 10.16L199.20 10.16Q197.44 10.16 195.60 9.76L195.60 9.76L195.60 9.76Q190.16 14.72 181.68 14.72L181.68 14.72L181.68 14.72Q176.64 14.72 173.88 13L173.88 13L173.88 13Q171.12 11.28 171.12 8.52L171.12 8.52L171.12 8.52Q171.12 5.76 172.84 4.12L172.84 4.12L172.84 4.12Q174.56 2.48 178.96 2.48L178.96 2.48L178.96 2.48Q183.36 2.48 190.56 6.08L190.56 6.08L193.04-7.20L193.04-7.20Q189.44-0.56 183.76-0.56L183.76-0.56L183.76-0.56Q172.88-0.56 172.88-11.28L172.88-11.28L172.88-11.28Q172.88-20.24 177.40-25.68L177.40-25.68L177.40-25.68Q181.92-31.12 188.96-31.12L188.96-31.12L188.96-31.12Q193.04-31.12 195.28-28.64L195.28-28.64L195.28-28.64Q195.92-27.92 196.56-26.48L196.56-26.48L197.28-30.40L197.28-30.40Q203.20-30.40 205.92-30.88L205.92-30.88L206.96-31.12L201.68-1.60L201.68-1.60Q200.48 4.64 196.88 8.48L196.88 8.48L196.88 8.48Q197.92 8.72 199.20 8.72zM181.92-8.80L181.92-8.80Q181.92-5.12 182.64-3.88L182.64-3.88L182.64-3.88Q183.36-2.64 185.36-2.64L185.36-2.64L185.36-2.64Q187.36-2.64 189.44-4.80L189.44-4.80L189.44-4.80Q191.52-6.96 192.44-8.84L192.44-8.84L192.44-8.84Q193.36-10.72 194.00-12.48L194.00-12.48L195.68-21.68L195.68-22.24L195.68-22.24Q195.68-29.60 188.96-29.60L188.96-29.60L188.96-29.60Q186.40-29.60 184.16-22.64L184.16-22.64L184.16-22.64Q181.92-15.68 181.92-8.80L181.92-8.80zM181.36 13.12L181.36 13.12L181.36 13.12Q187.76 13.12 190.00 7.60L190.00 7.60L188.88 7.04L188.88 7.04Q187.92 6.56 187.72 6.44L187.72 6.44L187.72 6.44Q187.52 6.32 186.64 5.92L186.64 5.92L186.64 5.92Q185.76 5.52 185.36 5.40L185.36 5.40L185.36 5.40Q184.96 5.28 184.12 4.96L184.12 4.96L184.12 4.96Q183.28 4.64 182.72 4.52L182.72 4.52L182.72 4.52Q182.16 4.40 181.44 4.24L181.44 4.24L181.44 4.24Q180.24 4 177.92 4L177.92 4L177.92 4Q175.60 4 174.20 5.12L174.20 5.12L174.20 5.12Q172.80 6.24 172.80 8.40L172.80 8.40L172.80 8.40Q172.80 10.56 175.12 11.84L175.12 11.84L175.12 11.84Q177.44 13.12 181.36 13.12" fill="#51cacc" stroke="none" stroke-width="none" transform="translate(-127.6400146484375,17.83466640896267)" style="fill: rgb(81, 202, 204);"></path></g><g class="path" style="transform: scale(0.91); transform-origin: 96.2px 2.63467px; animation: 1s linear -0.146667s infinite normal forwards running breath-5ee2bdb7-97ce-41e6-a451-a2263756f90c;"><path d="M227.36-31.12L227.36-31.12L227.36-31.12Q237.52-31.12 237.52-23.04L237.52-23.04L237.52-23.04Q237.52-18 232.76-15.40L232.76-15.40L232.76-15.40Q228-12.80 219.20-12.72L219.20-12.72L219.20-12.72Q219.04-9.84 219.04-8.16L219.04-8.16L219.04-8.16Q219.04-4.56 220.68-2.84L220.68-2.84L220.68-2.84Q222.32-1.12 224.80-1.12L224.80-1.12L224.80-1.12Q227.28-1.12 229.32-2.08L229.32-2.08L229.32-2.08Q231.36-3.04 232.56-4.36L232.56-4.36L232.56-4.36Q233.76-5.68 234.64-7.12L234.64-7.12L234.64-7.12Q236.24-9.76 236.24-10.48L236.24-10.48L237.68-9.84L237.68-9.84Q237.44-8.56 236.24-6.44L236.24-6.44L236.24-6.44Q235.04-4.32 233.60-2.96L233.60-2.96L233.60-2.96Q232.16-1.60 229.36-0.44L229.36-0.44L229.36-0.44Q226.56 0.72 223.12 0.72L223.12 0.72L223.12 0.72Q216.64 0.72 213.32-2.36L213.32-2.36L213.32-2.36Q210-5.44 210-10.80L210-10.80L210-10.80Q210-20.32 214.72-25.72L214.72-25.72L214.72-25.72Q219.44-31.12 227.36-31.12zM235.52-23.04L235.52-23.04Q235.52-25.68 233.96-27.40L233.96-27.40L233.96-27.40Q232.40-29.12 229.32-29.12L229.32-29.12L229.32-29.12Q226.24-29.12 223.32-25.44L223.32-25.44L223.32-25.44Q220.40-21.76 219.44-14.56L219.44-14.56L219.44-14.56Q235.52-14.64 235.52-23.04L235.52-23.04" fill="#51cacc" stroke="none" stroke-width="none" transform="translate(-127.6400146484375,17.83466640896267)" style="fill: rgb(157, 248, 113);"></path></g><g class="path" style="transform: scale(0.91); transform-origin: 122.32px 2.63467px; animation: 1s linear -0.0733333s infinite normal forwards running breath-5ee2bdb7-97ce-41e6-a451-a2263756f90c;"><path d="M256.64-2.16L256.64-2.16Q254.24 0.72 250.64 0.72L250.64 0.72L250.64 0.72Q247.04 0.72 245-1.12L245-1.12L245-1.12Q242.96-2.96 242.96-5.92L242.96-5.92L242.96-5.92Q242.96-6.96 244.24-14.64L244.24-14.64L246.88-28.96L243.52-28.96L243.68-30.40L247.12-30.40L247.12-30.40Q253.04-30.40 255.84-30.88L255.84-30.88L256.96-31.12L251.44-0.88L251.44-0.88Q253.84-1.12 255.44-3.12L255.44-3.12L256.64-2.16" fill="#51cacc" stroke="none" stroke-width="none" transform="translate(-127.6400146484375,17.83466640896267)" style="fill: rgb(224, 255, 119);"></path></g><g class="path" style="transform: scale(0.91); transform-origin: 126.08px -25.0853px; animation: 1s linear 0s infinite normal forwards running breath-5ee2bdb7-97ce-41e6-a451-a2263756f90c;"><path d="M249.60-38.80L249.60-38.80L249.60-38.80Q247.92-40.48 247.92-42.88L247.92-42.88L247.92-42.88Q247.92-45.28 249.60-47L249.60-47L249.60-47Q251.28-48.72 253.68-48.72L253.68-48.72L253.68-48.72Q256.08-48.72 257.80-47L257.80-47L257.80-47Q259.52-45.28 259.52-42.88L259.52-42.88L259.52-42.88Q259.52-40.48 257.80-38.80L257.80-38.80L257.80-38.80Q256.08-37.12 253.68-37.12L253.68-37.12L253.68-37.12Q251.28-37.12 249.60-38.80" fill="#51cacc" stroke="none" stroke-width="none" transform="translate(-127.6400146484375,17.83466640896267)" style="fill: rgb(222, 157, 214);"></path></g></g>
</g>
</g>
<style id="breath-5ee2bdb7-97ce-41e6-a451-a2263756f90c" data-anikit="">@keyframes breath-5ee2bdb7-97ce-41e6-a451-a2263756f90c
{
  0% {
    animation-timing-function: cubic-bezier(0.9647,0.2413,-0.0705,0.7911);
    transform: scale(0.9099999999999999);
  }
  51% {
    animation-timing-function: cubic-bezier(0.9226,0.2631,-0.0308,0.7628);
    transform: scale(1.02994);
  }
  100% {
    transform: scale(0.9099999999999999);
  }
}</style></svg>